<svg xmlns="http://www.w3.org/2000/svg" version="1.1" xmlns:xlink="http://www.w3.org/1999/xlink" xmlns:svgjs="http://svgjs.dev/svgjs" width="1500" height="526" viewBox="0 0 1500 526"><g transform="matrix(1,0,0,1,-0.9090909090909918,-0.6023893367774349)"><svg viewBox="0 0 396 139" data-background-color="#ffffff" preserveAspectRatio="xMidYMid meet" height="526" width="1500" xmlns="http://www.w3.org/2000/svg" xmlns:xlink="http://www.w3.org/1999/xlink"><g id="tight-bounds" transform="matrix(1,0,0,1,0.2400000000000091,0.1591865357643769)"><svg viewBox="0 0 395.52 138.68162692847125" height="138.68162692847125" width="395.52"><g><svg viewBox="0 0 395.52 138.68162692847125" height="138.68162692847125" width="395.52"><g><svg viewBox="0 0 395.52 138.68162692847125" height="138.68162692847125" width="395.52"><g id="textblocktransform"><svg viewBox="0 0 395.52 138.68162692847125" height="138.68162692847125" width="395.52" id="textblock"><g><svg viewBox="0 0 395.52 138.68162692847125" height="138.68162692847125" width="395.52"><g transform="matrix(1,0,0,1,0,0)"><svg width="395.52" viewBox="0.65 -37.5 106.94999999999999 37.5" height="138.68162692847125" data-palette-color="#b3dfff"><path d="M0.65-37.5L45.7-37.5 45.7-22.3 33.65-22.3Q33.65-22.3 33.63-22.28 33.6-22.25 33.58-22.25 33.55-22.25 33.55-22.2L33.55-22.2Q33.55-20 33.55-17.78 33.55-15.55 33.55-13.33 33.55-11.1 33.55-8.88 33.55-6.65 33.55-4.42 33.55-2.2 33.55 0L33.55 0 12.8 0Q12.8-3.7 12.8-7.4 12.8-11.1 12.8-14.8 12.8-18.5 12.8-22.2L12.8-22.2Q12.8-22.2 12.8-22.23 12.8-22.25 12.78-22.28 12.75-22.3 12.73-22.3 12.7-22.3 12.7-22.3L12.7-22.3 0.65-22.3 0.65-37.5ZM82.4-37.5L107.6-37.5Q107.6-33.75 107.6-30 107.6-26.25 107.6-22.5 107.6-18.75 107.6-15 107.6-11.25 107.6-7.5 107.6-3.75 107.6 0L107.6 0 88.35 0Q88.35-5.2 88.35-10.4 88.35-15.6 88.35-20.8L88.35-20.8Q88.35-20.8 88.35-20.83 88.35-20.85 88.32-20.85 88.3-20.85 88.27-20.85 88.25-20.85 88.25-20.83 88.25-20.8 88.25-20.8L88.25-20.8 83.35 0 70.6 0Q69.35-5.2 68.15-10.35 66.95-15.5 65.7-20.65L65.7-20.65Q65.7-20.65 65.7-20.68 65.7-20.7 65.67-20.7 65.65-20.7 65.65-20.7 65.65-20.7 65.62-20.7 65.6-20.7 65.6-20.68 65.6-20.65 65.6-20.65L65.6-20.65Q65.6-15.5 65.6-10.35 65.6-5.2 65.6 0L65.6 0 47.35 0Q47.35-3.75 47.35-7.53 47.35-11.3 47.35-15.08 47.35-18.85 47.35-22.63 47.35-26.4 47.35-30.15L47.35-30.15Q47.35-32 47.35-33.83 47.35-35.65 47.35-37.5L47.35-37.5 74-37.5Q74.75-34.4 75.45-31.33 76.15-28.25 76.87-25.15 77.6-22.05 78.3-18.95L78.3-18.95Q78.3-18.9 78.32-18.88 78.35-18.85 78.37-18.88 78.4-18.9 78.4-18.95L78.4-18.95 82.4-37.5Z" opacity="1" transform="matrix(1,0,0,1,0,0)" fill="#b3dfff" class="wordmark-text-0" data-fill-palette-color="primary" id="text-0"></path></svg></g></svg></g></svg></g></svg></g><g></g></svg></g><defs></defs></svg><rect width="395.52" height="138.68162692847125" fill="none" stroke="none" visibility="hidden"></rect></g></svg></g></svg>