<svg xmlns="http://www.w3.org/2000/svg" version="1.1" xmlns:xlink="http://www.w3.org/1999/xlink" xmlns:svgjs="http://svgjs.dev/svgjs" width="1500" height="939" viewBox="0 0 1500 939"><g transform="matrix(1,0,0,1,-0.9090909090909918,-1.5145161290323017)"><svg viewBox="0 0 396 248" data-background-color="#ffffff" preserveAspectRatio="xMidYMid meet" height="939" width="1500" xmlns="http://www.w3.org/2000/svg" xmlns:xlink="http://www.w3.org/1999/xlink"><g id="tight-bounds" transform="matrix(1,0,0,1,0.2400000000000091,0.4000000000000057)"><svg viewBox="0 0 395.52 247.2" height="247.2" width="395.52"><g><svg></svg></g><g><svg viewBox="0 0 395.52 247.2" height="247.2" width="395.52"><g transform="matrix(1,0,0,1,75.54432,95.36894751651052)"><svg viewBox="0 0 244.43135999999998 56.46210496697895" height="56.46210496697895" width="244.43135999999998"><g><svg viewBox="0 0 244.43135999999998 56.46210496697895" height="56.46210496697895" width="244.43135999999998"><g><svg viewBox="0 0 244.43136 56.462104966978956" height="56.46210496697895" width="244.43135999999998"><g><svg viewBox="0 0 244.43136 56.462104966978956" height="56.462104966978956" width="244.43136"><g id="textblocktransform"><svg viewBox="0 0 244.43136 56.462104966978956" height="56.462104966978956" width="244.43136" id="textblock"><g><svg viewBox="0 0 244.43136 56.462104966978956" height="56.462104966978956" width="244.43136"><g transform="matrix(1,0,0,1,0,0)"><svg width="244.43136" viewBox="0.44 -35.01 158.95 36.72" height="56.462104966978956" data-palette-color="#f28db2"><path d="M17.94-28L17.94 0 10.96 0 10.96-28 0.44-28 0.44-35.01 28.44-35.01 28.44-28 17.94-28ZM56.15-7.01L56.15 0 32.15 0 32.15-35.01 56.15-35.01 56.15-28 39.16-28 39.16-21 50.66-21 50.66-13.99 39.16-13.99 39.16-7.01 56.15-7.01ZM75.07-28L68.06-28 68.06-13.99 75.07-13.99Q76.51-13.99 77.78-14.54 79.05-15.09 80-16.04 80.95-16.99 81.5-18.27 82.05-19.56 82.05-21L82.05-21Q82.05-22.44 81.5-23.72 80.95-25 80-25.95 79.05-26.9 77.78-27.45 76.51-28 75.07-28L75.07-28ZM68.06-7.01L68.06 0 61.05 0 61.05-35.01 75.07-35.01Q77-35.01 78.78-34.51 80.56-34.01 82.11-33.09 83.66-32.18 84.94-30.9 86.23-29.61 87.14-28.05 88.06-26.49 88.56-24.71 89.06-22.92 89.06-21L89.06-21Q89.06-19.19 88.61-17.48 88.15-15.77 87.31-14.23 86.47-12.7 85.25-11.4 84.03-10.11 82.51-9.16L82.51-9.16 86.4 0 78.95 0 75.9-7.06 68.06-7.01ZM117.64-7.01L117.64 0 93.64 0 93.64-35.01 117.64-35.01 117.64-28 100.65-28 100.65-21 112.15-21 112.15-13.99 100.65-13.99 100.65-7.01 117.64-7.01ZM147.55-7.01L147.55 0 120.45 0 135.39-28 120.45-28 120.45-35.01 147.55-35.01 132.66-7.01 147.55-7.01ZM159.39-2.49L159.39-2.49Q159.39-1.61 159.07-0.84 158.75-0.07 158.19 0.49 157.63 1.05 156.87 1.38 156.12 1.71 155.24 1.71L155.24 1.71Q154.38 1.71 153.61 1.38 152.84 1.05 152.27 0.49 151.7-0.07 151.37-0.84 151.04-1.61 151.04-2.49L151.04-2.49Q151.04-3.34 151.37-4.1 151.7-4.86 152.27-5.42 152.84-5.98 153.61-6.31 154.38-6.64 155.24-6.64L155.24-6.64Q156.12-6.64 156.87-6.31 157.63-5.98 158.19-5.42 158.75-4.86 159.07-4.1 159.39-3.34 159.39-2.49Z" opacity="1" transform="matrix(1,0,0,1,0,0)" fill="#f28db2" class="wordmark-text-0" data-fill-palette-color="primary" id="text-0"></path></svg></g></svg></g></svg></g></svg></g></svg></g></svg></g></svg></g><path d="M195.974 89.369L195.974 30.008 8.791 30.008 8.791 217.192 195.974 217.192 195.974 157.831 190.882 157.831 190.882 212.1 13.883 212.1 13.883 35.1 190.882 35.1 190.882 89.369Z" fill="#ffffff" stroke="transparent" data-fill-palette-color="tertiary"></path></svg></g><defs></defs></svg><rect width="395.52" height="247.2" fill="none" stroke="none" visibility="hidden"></rect></g></svg></g></svg>